<?xml version="1.0" encoding="UTF-8"?>
<svg version="1.1" xmlns="http://www.w3.org/2000/svg" width="512" height="512">
<path d="M0 0 C0.82849457 0.00215515 1.65698914 0.0043103 2.5105896 0.00653076 C67.02601847 0.27463153 125.96718348 27.30387812 171.11254883 72.81567383 C176.22084232 78.05269712 180.94764172 83.48367579 185.375 89.3125 C185.80232422 89.86873047 186.22964844 90.42496094 186.66992188 90.99804688 C193.60122815 100.05298742 199.79232217 109.37133223 205.375 119.3125 C205.98408203 120.38709473 205.98408203 120.38709473 206.60546875 121.48339844 C218.51582084 142.67466335 226.7500898 165.68954573 231.625 189.5 C231.77614258 190.23420166 231.92728516 190.96840332 232.08300781 191.72485352 C234.83689917 206.08331981 235.75637819 220.34803018 235.6875 234.9375 C235.68534485 235.76599457 235.6831897 236.59448914 235.68096924 237.4480896 C235.41286847 301.96351847 208.38362188 360.90468348 162.87182617 406.05004883 C157.63438663 411.15874834 152.20104606 415.88085837 146.375 420.3125 C145.84535645 420.72387207 145.31571289 421.13524414 144.77001953 421.55908203 C107.14138138 450.71076129 59.03461842 470.21856115 10.9921875 470.515625 C9.83956169 470.52621445 9.83956169 470.52621445 8.66365051 470.53701782 C-47.77803588 470.93729582 -102.48979273 455.87353622 -146.625 419.3125 C-147.17140137 418.86616211 -147.71780273 418.41982422 -148.28076172 417.95996094 C-161.61768131 407.03378542 -174.17825569 395.0661274 -184.625 381.3125 C-185.05232422 380.75626953 -185.47964844 380.20003906 -185.91992188 379.62695312 C-192.85122815 370.57201258 -199.04232217 361.25366777 -204.625 351.3125 C-205.03105469 350.59610352 -205.43710938 349.87970703 -205.85546875 349.14160156 C-217.76582084 327.95033665 -226.0000898 304.93545427 -230.875 281.125 C-231.10171387 280.02369751 -231.10171387 280.02369751 -231.33300781 278.90014648 C-234.08689917 264.54168019 -235.00637819 250.27696982 -234.9375 235.6875 C-234.93534485 234.85900543 -234.9331897 234.03051086 -234.93096924 233.1769104 C-234.66286847 168.66148153 -207.63362188 109.72031652 -162.12182617 64.57495117 C-156.88480288 59.46665768 -151.45382421 54.73985828 -145.625 50.3125 C-145.06876953 49.88517578 -144.51253906 49.45785156 -143.93945312 49.01757812 C-134.88451258 42.08627185 -125.56616777 35.89517783 -115.625 30.3125 C-114.90860352 29.90644531 -114.19220703 29.50039063 -113.45410156 29.08203125 C-92.26283665 17.17167916 -69.24795427 8.9374102 -45.4375 4.0625 C-44.70329834 3.91135742 -43.96909668 3.76021484 -43.21264648 3.60449219 C-28.85418019 0.85060083 -14.58946982 -0.06887819 0 0 Z " fill="#4A3794" transform="translate(255.625,20.6875)"/>
<path d="M0 0 C5.05865107 0.36684653 7.5970117 3.058326 10.95703125 6.53125 C11.50485764 7.0823645 12.05268402 7.633479 12.61711121 8.20129395 C13.76887746 9.36345648 14.91587507 10.53036208 16.05834961 11.70166016 C17.81490192 13.50246243 19.58463525 15.28940908 21.35742188 17.07421875 C22.47474181 18.20495553 23.5913055 19.33644018 24.70703125 20.46875 C25.23819046 21.00729614 25.76934967 21.54584229 26.31660461 22.10070801 C30 25.88170696 30 25.88170696 30 27 C21.40131562 26.38580826 13.30515248 24.19092979 5 22 C4.82245682 22.61088974 4.64491364 23.22177948 4.46199036 23.85118103 C2.70035403 29.82867349 0.75260589 35.70591344 -1.36328125 41.56640625 C-1.83497993 42.88305519 -1.83497993 42.88305519 -2.31620789 44.2263031 C-3.3125539 47.00591016 -4.3123869 49.78424642 -5.3125 52.5625 C-6.29744042 55.30572529 -7.28164323 58.04921437 -8.26574707 60.79273987 C-8.91301465 62.59714956 -9.56055606 64.40146105 -10.20837402 66.20567322 C-12.71571254 73.19288969 -15.19357269 80.1901641 -17.65795898 87.19262695 C-18.87452654 90.64872696 -20.1041377 94.10007831 -21.3359375 97.55078125 C-22.01586925 99.47126771 -22.69556418 101.39183803 -23.375 103.3125 C-23.72949219 104.29927734 -24.08398438 105.28605469 -24.44921875 106.30273438 C-24.95001953 107.72489258 -24.95001953 107.72489258 -25.4609375 109.17578125 C-25.90638916 110.42742065 -25.90638916 110.42742065 -26.36083984 111.7043457 C-27.17881319 114.24507654 -27.17881319 114.24507654 -27 118 C-24.25719055 117.6586726 -23.23636643 117.29166541 -21.46704102 115.10839844 C-20.98420654 114.2837207 -20.50137207 113.45904297 -20.00390625 112.609375 C-19.45234863 111.68342529 -18.90079102 110.75747559 -18.33251953 109.8034668 C-17.74841309 108.79582275 -17.16430664 107.78817871 -16.5625 106.75 C-15.30163023 104.62579792 -14.03989376 102.50211008 -12.77734375 100.37890625 C-12.14296387 99.30398926 -11.50858398 98.22907227 -10.85498047 97.12158203 C-8.17156613 92.60590215 -5.40326171 88.14522678 -2.625 83.6875 C0.92707664 77.96912219 4.46735692 72.24392929 7.984375 66.50390625 C15.50489344 54.23353994 23.09412347 42.02631218 31 30 C34.09630096 30.58157754 35.7967339 31.40549402 38.07601929 33.56721497 C38.94684647 34.38416588 38.94684647 34.38416588 39.83526611 35.21762085 C40.77218292 36.11887192 40.77218292 36.11887192 41.72802734 37.03833008 C42.39506683 37.66959305 43.06210632 38.30085602 43.74935913 38.95124817 C50.721001 45.5745084 57.59665456 52.29883956 64.46435547 59.02954102 C67.72084605 62.21485724 71.0049113 65.3668853 74.31787109 68.4934082 C78.3272936 72.2777072 82.2790721 76.11427519 86.19713211 79.9930172 C87.69273187 81.45572194 89.20707283 82.89953334 90.74039841 84.32264137 C102.36067864 95.14918422 102.36067864 95.14918422 103.42878532 101.58269691 C103.56411114 107.56955963 102.45367259 113.22010624 101 119 C100.76506332 120.11313568 100.53012665 121.22627136 100.28807068 122.37313843 C99.75022563 124.82446752 99.07509201 127.17243741 98.3125 129.5625 C98.05049805 130.42488281 97.78849609 131.28726563 97.51855469 132.17578125 C96.70793548 134.79426313 95.86260329 137.39822085 95 140 C94.60337158 141.20438721 94.60337158 141.20438721 94.19873047 142.43310547 C79.94996995 184.93477311 52.85076164 224.72975077 17 252 C16.47035645 252.41137207 15.94071289 252.82274414 15.39501953 253.24658203 C-6.59664487 270.28397638 -31.48946991 283.50788491 -58 292 C-58.86032837 292.28701782 -58.86032837 292.28701782 -59.73803711 292.57983398 C-65.11357697 293.57835574 -68.56664319 293.97813857 -73.10834503 290.87883091 C-74.13419237 289.88764513 -75.1387513 288.8741211 -76.12512207 287.84364319 C-76.68732059 287.28898563 -77.24951911 286.73432808 -77.82875395 286.16286272 C-79.70287807 284.30422616 -81.54703819 282.41848409 -83.39257812 280.53149414 C-84.73193216 279.19152041 -86.07304268 277.85330038 -87.41577148 276.51670837 C-91.05324154 272.88580423 -94.66544809 269.23067464 -98.27350807 265.570575 C-102.04977294 261.7480183 -105.84830669 257.94772063 -109.64440918 254.1448822 C-116.01243359 247.75939098 -122.36580871 241.35963515 -128.70898438 234.94946289 C-137.66766764 225.89619385 -146.65189247 216.86861325 -155.6416254 207.84618962 C-167.66782629 195.77349193 -179.68716737 183.6937678 -191.67575073 171.58370399 C-192.97784914 170.26904277 -194.28079073 168.95521609 -195.58460999 167.64226151 C-197.35572047 165.85830941 -199.12368095 164.0712974 -200.89074707 162.28334045 C-201.67631509 161.49395626 -201.67631509 161.49395626 -202.47775316 160.68862492 C-206 157.11435192 -206 157.11435192 -206 156 C-163.43 156 -120.86 156 -77 156 C-77 153.69 -77 151.38 -77 149 C-92.51 149 -108.02 149 -124 149 C-124.52141452 133.50908653 -124.52141452 133.50908653 -124.63476562 126.8359375 C-124.71209879 122.30491919 -124.80289679 117.77735759 -124.98071289 113.24902344 C-125.9925859 86.79669595 -125.9925859 86.79669595 -121.24829102 80.44018555 C-118.18514711 77.27084968 -114.81072697 75.18359127 -111 73 C-109.07960051 71.46779372 -107.17911633 69.9097895 -105.3125 68.3125 C-104.42175781 67.59707031 -103.53101563 66.88164062 -102.61328125 66.14453125 C-100.00152377 64.00125044 -97.49634698 61.7761967 -95 59.5 C-90.70008209 55.58108748 -86.24080453 51.90829131 -81.71875 48.25 C-79.07852271 46.06498431 -76.5327028 43.80828609 -74 41.5 C-70.58260628 38.38541332 -67.0947765 35.4081338 -63.5 32.5 C-59.82665742 29.52708291 -56.25468977 26.4826512 -52.75 23.3125 C-51.50863281 22.20455078 -51.50863281 22.20455078 -50.2421875 21.07421875 C-48.04555814 19.1047493 -48.04555814 19.1047493 -46.3828125 17.20703125 C-40.75579682 11.30303811 -32.69047846 11.05041447 -25 10 C-22.29389552 9.62934872 -19.588091 9.25761037 -16.88354492 8.87573242 C-15.1121594 8.62886451 -13.33882584 8.39552471 -11.5637207 8.17700195 C-10.75249756 8.06702881 -9.94127441 7.95705566 -9.10546875 7.84375 C-8.02495239 7.70743164 -8.02495239 7.70743164 -6.92260742 7.56835938 C-4.55205011 6.86757748 -3.56749617 5.88436449 -2 4 C-0.82425289 1.90010348 -0.82425289 1.90010348 0 0 Z " fill="#3B2C76" transform="translate(385,189)"/>
<path d="M0 0 C43.23 0 86.46 0 131 0 C131 2.31 131 4.62 131 7 C116.81 7.33 102.62 7.66 88 8 C89.959375 10.701875 91.91875 13.40375 93.9375 16.1875 C98.55390887 22.56998295 103.10704531 28.98602377 107.5703125 35.4765625 C117.96872408 50.59104822 128.59426869 65.55232073 139.203125 80.51953125 C149.3898978 94.90286898 149.3898978 94.90286898 154 102 C157.93214301 100.41060574 160.33020346 97.83657498 163.25 94.8125 C167.03793722 90.93386391 170.91477804 87.26045465 175.0390625 83.7421875 C178.09091988 81.03077636 180.91144766 78.09662853 183.77734375 75.19140625 C186.4270144 72.57898932 189.21172803 70.16697379 192.03515625 67.74609375 C194.10820324 65.90384325 196.05435802 63.97598338 198 62 C201.17083076 58.77972159 204.47762578 55.8113429 207.91015625 52.875 C211.13688891 49.97998752 214.11888727 46.85154446 217.1171875 43.72265625 C219 42 219 42 221 42 C221 41.34 221 40.68 221 40 C219.8346875 39.896875 218.669375 39.79375 217.46875 39.6875 C211.09744872 38.97846804 204.83648485 37.68725845 198.55859375 36.41601562 C196.47768087 35.99548959 194.39521969 35.58334865 192.3125 35.171875 C190.98948421 34.90674414 189.66656375 34.64113704 188.34375 34.375 C187.14943359 34.13523438 185.95511719 33.89546875 184.72460938 33.6484375 C182 33 182 33 181 32 C180.95919217 30.00041636 180.95745644 27.99954746 181 26 C217.00604642 25.26723834 252.98580557 24.84424999 289 25 C288.6875 27.875 288.6875 27.875 288 31 C285.13980517 32.90679655 284.12594514 33.31492534 280.89453125 33.74609375 C280.08371094 33.85888672 279.27289063 33.97167969 278.4375 34.08789062 C277.57125 34.20326172 276.705 34.31863281 275.8125 34.4375 C273.9959675 34.70617905 272.17956249 34.9757214 270.36328125 35.24609375 C267.09332784 35.72037957 263.8293106 36.13243201 260.54296875 36.47265625 C250.28403166 37.7035826 245.233207 41.33443393 238.39697266 48.58203125 C236.21543964 50.79635208 233.80647228 52.69342482 231.375 54.625 C227.81815864 57.48881783 224.37460948 60.42346328 221 63.5 C216.70008209 67.41891252 212.24080453 71.09170869 207.71875 74.75 C205.07852271 76.93501569 202.5327028 79.19171391 200 81.5 C196.58260628 84.61458668 193.0947765 87.5918662 189.5 90.5 C185.02879245 94.11864679 180.72654808 97.87793615 176.484375 101.76171875 C174 104 174 104 172.25785828 105.01829529 C168.83322891 107.25001899 167.22875513 108.94779781 166.34518433 113.01194763 C166.09246011 116.87843499 166.05530428 120.71452589 166.09765625 124.5859375 C166.08826433 126.01228101 166.07580231 127.43860731 166.06040955 128.86489868 C166.02825447 132.60364473 166.03759881 136.34116118 166.05578613 140.07995605 C166.06893257 144.57388651 166.03018556 149.06763721 166.00020599 153.56144714 C165.96052651 160.37498188 165.98648669 167.18542894 166 174 C181.51 174 197.02 174 213 174 C213 176.31 213 178.62 213 181 C170.1 181 127.2 181 83 181 C83 178.69 83 176.38 83 174 C84.48209961 174.01740234 84.48209961 174.01740234 85.99414062 174.03515625 C89.69235498 174.06791401 93.38877723 174.04769344 97.08691406 174.01220703 C98.6813067 174.00414151 100.27583843 174.0100696 101.87011719 174.03076172 C104.17562074 174.05817384 106.47592347 174.033731 108.78125 174 C109.83487732 174.02912476 109.83487732 174.02912476 110.90979004 174.05883789 C115.40143541 173.93060398 118.02726018 172.63293402 121.44506836 169.70263672 C126.15045346 164.49787958 126.17743442 159.53098824 126.09765625 152.7578125 C126.10768173 151.59426239 126.11770721 150.43071228 126.1280365 149.23190308 C126.13782844 146.77943827 126.12738996 144.32681877 126.09790039 141.87451172 C126.06265179 138.14107701 126.1178913 134.41649802 126.18164062 130.68359375 C126.17994797 128.29165654 126.17296039 125.89971603 126.16015625 123.5078125 C126.18151138 122.40333771 126.20286652 121.29886292 126.22486877 120.16091919 C126.03765028 112.30824132 123.7579686 108.51863277 118.17172241 103.0403595 C117.45505402 102.36704086 116.73838562 101.69372223 116 101 C114.50254237 99.20258215 113.01858578 97.39359379 111.5625 95.5625 C107.70058325 90.78715598 103.62325776 86.26332315 99.46484375 81.74609375 C97.07292703 79.08124834 94.80745116 76.35168175 92.5625 73.5625 C89.34056899 69.56776014 85.99344505 65.75445651 82.5 62 C78.21044887 57.38995664 74.19589328 52.62217044 70.24609375 47.71484375 C67.9116941 44.89326505 65.48009402 42.19409288 63 39.5 C58.93781433 35.08730216 55.13993467 30.52439903 51.3828125 25.8515625 C48.21528745 22.06091777 44.8641405 18.45541744 41.45336914 14.88305664 C38 11.21203559 38 11.21203559 38 9 C25.46 9 12.92 9 0 9 C0 6.03 0 3.06 0 0 Z " fill="#FDFDFE" transform="translate(95,164)"/>
<path d="M0 0 C-0.3125 2.875 -0.3125 2.875 -1 6 C-3.86019483 7.90679655 -4.87405486 8.31492534 -8.10546875 8.74609375 C-8.91628906 8.85888672 -9.72710937 8.97167969 -10.5625 9.08789062 C-11.42875 9.20326172 -12.295 9.31863281 -13.1875 9.4375 C-15.0040325 9.70617905 -16.82043751 9.9757214 -18.63671875 10.24609375 C-21.90667216 10.72037957 -25.1706894 11.13243201 -28.45703125 11.47265625 C-38.71596834 12.7035826 -43.766793 16.33443393 -50.60302734 23.58203125 C-52.78456036 25.79635208 -55.19352772 27.69342482 -57.625 29.625 C-61.18184136 32.48881783 -64.62539052 35.42346328 -68 38.5 C-72.29991791 42.41891252 -76.75919547 46.09170869 -81.28125 49.75 C-83.92147729 51.93501569 -86.4672972 54.19171391 -89 56.5 C-92.41739372 59.61458668 -95.9052235 62.5918662 -99.5 65.5 C-103.97120755 69.11864679 -108.27345192 72.87793615 -112.515625 76.76171875 C-115 79 -115 79 -116.74214172 80.01829529 C-120.16677109 82.25001899 -121.77124487 83.94779781 -122.65481567 88.01194763 C-122.90753989 91.87843499 -122.94469572 95.71452589 -122.90234375 99.5859375 C-122.91173567 101.01228101 -122.92419769 102.43860731 -122.93959045 103.86489868 C-122.97174553 107.60364473 -122.96240119 111.34116118 -122.94421387 115.07995605 C-122.93106743 119.57388651 -122.96981444 124.06763721 -122.99979401 128.56144714 C-123.03947349 135.37498188 -123.01351331 142.18542894 -123 149 C-107.49 149 -91.98 149 -76 149 C-76 151.31 -76 153.62 -76 156 C-118.9 156 -161.8 156 -206 156 C-206 155.67 -206 155.34 -206 155 C-180.26 155 -154.52 155 -128 155 C-128.17660156 149.18503906 -128.35320312 143.37007812 -128.53515625 137.37890625 C-128.62680636 133.68291123 -128.715729 129.98724735 -128.79492188 126.29101562 C-128.92073978 120.43063035 -129.05630609 114.57166663 -129.25170898 108.71313477 C-129.40871998 103.9867106 -129.52050842 99.26113238 -129.60171318 94.53281975 C-129.64041432 92.73400412 -129.69508763 90.93545531 -129.76637459 89.13763618 C-130.30810311 75.08365319 -130.30810311 75.08365319 -127.09054565 69.95846558 C-124.8433132 67.67921495 -122.61019728 65.84246312 -120 64 C-118.65632548 62.84525861 -117.32112753 61.68047064 -116 60.5 C-115.3503125 59.943125 -114.700625 59.38625 -114.03125 58.8125 C-110.96025683 56.07222917 -108.11213124 53.12053098 -105.22265625 50.19140625 C-102.5729856 47.57898932 -99.78827197 45.16697379 -96.96484375 42.74609375 C-94.89179676 40.90384325 -92.94564198 38.97598338 -91 37 C-87.82916924 33.77972159 -84.52237422 30.8113429 -81.08984375 27.875 C-77.86311109 24.97998752 -74.88111273 21.85154446 -71.8828125 18.72265625 C-70 17 -70 17 -68 17 C-68 16.34 -68 15.68 -68 15 C-69.1653125 14.896875 -70.330625 14.79375 -71.53125 14.6875 C-77.90255128 13.97846804 -84.16351515 12.68725845 -90.44140625 11.41601562 C-92.52231913 10.99548959 -94.60478031 10.58334865 -96.6875 10.171875 C-98.01051579 9.90674414 -99.33343625 9.64113704 -100.65625 9.375 C-101.85056641 9.13523438 -103.04488281 8.89546875 -104.27539062 8.6484375 C-107 8 -107 8 -108 7 C-108.04080783 5.00041636 -108.04254356 2.99954746 -108 1 C-71.99395358 0.26723834 -36.01419443 -0.15575001 0 0 Z " fill="#DFDEE2" transform="translate(384,189)"/>
<path d="M0 0 C3.18847437 0.62009395 6.37558015 1.24696967 9.5625 1.875 C10.45775391 2.04902344 11.35300781 2.22304687 12.27539062 2.40234375 C17.26669542 3.38963481 22.13216011 4.51761254 27 6 C23.83316267 12.67241596 20.08125279 18.83152882 16.125 25.0625 C10.97668281 33.23254622 5.88024666 41.42898424 0.875 49.6875 C-4.72252862 58.91694653 -10.38007395 68.10723025 -16.07421875 77.27734375 C-17.90119864 80.22077843 -19.71818888 83.16971353 -21.51953125 86.12890625 C-21.89158691 86.73911621 -22.26364258 87.34932617 -22.64697266 87.97802734 C-23.60406916 89.55043226 -24.55804387 91.12473624 -25.51171875 92.69921875 C-27 95 -27 95 -29 97 C-31.125 96.625 -31.125 96.625 -33 96 C-32.41834611 90.9537266 -31.2984433 86.39265808 -29.6015625 81.59765625 C-29.36593597 80.91626083 -29.13030945 80.23486542 -28.88754272 79.53282166 C-28.13926982 77.37394048 -27.38219007 75.2182675 -26.625 73.0625 C-26.12444083 71.62063671 -25.62443616 70.17858079 -25.125 68.73632812 C-23.08552769 62.86536045 -21.0133748 57.01156463 -18.82022095 51.19596863 C-17.18341555 46.81376732 -15.60891785 42.40878049 -14.0234375 38.0078125 C-13.26306278 35.90102653 -12.50264487 33.79425614 -11.7421875 31.6875 C-10.55222498 28.38918065 -9.36264732 25.09072382 -8.17382812 21.79199219 C-7.02060911 18.5927089 -5.8658839 15.39397253 -4.7109375 12.1953125 C-4.3536557 11.20266388 -3.9963739 10.21001526 -3.62826538 9.18728638 C-3.2976712 8.27228363 -2.96707703 7.35728088 -2.62646484 6.41455078 C-2.3357309 5.60817169 -2.04499695 4.8017926 -1.74545288 3.97097778 C-1 2 -1 2 0 0 Z " fill="#C8C8CB" transform="translate(390,211)"/>
<path d="M0 0 C1.43931117 0.45261358 2.87638999 0.91232979 4.3125 1.375 C5.11300781 1.63023437 5.91351563 1.88546875 6.73828125 2.1484375 C9 3 9 3 12 5 C10.66511872 8.59391114 9.03977277 11.75490696 7 15 C5.5164999 14.57742724 4.03823576 14.13643678 2.5625 13.6875 C1.73878906 13.44386719 0.91507812 13.20023437 0.06640625 12.94921875 C-0.61550781 12.63597656 -1.29742187 12.32273437 -2 12 C-3.15957207 8.52128379 -2.77456651 7.65780355 -1.5625 4.3125 C-1.13130859 3.10013672 -1.13130859 3.10013672 -0.69140625 1.86328125 C-0.46324219 1.24839844 -0.23507812 0.63351562 0 0 Z " fill="#C5C3CA" transform="translate(341,333)"/>
<path d="" fill="#46348E" transform="translate(0,0)"/>
<path d="" fill="#46348E" transform="translate(0,0)"/>
<path d="" fill="#46348E" transform="translate(0,0)"/>
<path d="" fill="#46348E" transform="translate(0,0)"/>
</svg>
